<svg xmlns="http://www.w3.org/2000/svg" viewBox="0 0 1166.23 591.89"><defs><style>.cls-1{fill:#1d1d1b;}</style></defs><g id="Layer_2" data-name="Layer 2"><g id="Layer_1-2" data-name="Layer 1"><path class="cls-1" d="M433.28,75.52l-14.6.51c-8.36.29-16.78.53-25,.71l-6.09.13-2.34,5.63c-20.71,49.85-51.32,122.22-79.56,183.93-16.55,36.54-32,68.86-44.35,94.83q-2.4,5-4.6,9.65c-1-13.37-2.34-29.83-3.89-49-1.09-13.62-2.29-28.46-3.53-44.24-3.94-49-8.89-114.28-15.15-199.71l-.56-7.6-7.56-1c-8.2-1.07-16.43-2.28-24.44-3.59L194,64.5l-2.67,7.25C169.81,130.18,134.16,209.22,102.71,279,88,311.68,74.91,340.59,65.17,363.28,62.24,306.68,55.84,208.05,50,118c-2.22-34.13-4.29-66-5.93-92l-.36-5.69L38.48,18c-8-3.49-16.06-7.2-24-11L0,0,4.62,68.57c8.57,127.33,17.43,259,26.15,375.8l.59,7.91,7.89.71c8,.73,16.27,1.33,24.67,1.78l6.52.35,2.58-6c11.1-25.89,25.68-57.29,41.11-90.54,13.32-28.68,27.09-58.35,40.25-87.92,16.74-37.16,33.37-76.89,45.3-107.7,1.86,30.1,4.63,70.3,7.72,109.83,5,65,10.86,128.69,14.7,166.61l1,9.46,9.44-1.12c8.29-1,16.95-2.07,25.72-3.25l4.73-.64,2.26-4.2C312.78,351.12,364.39,239.7,427.63,89Z"/><path class="cls-1" d="M446.42,206.65l-13.11,1.1q-9.94.84-19.87,1.56l-6.72.49-1.66,6.53c-18,70.74-35.35,134.54-51.56,189.62l-4,13.63,14.11-1.7q10-1.22,20.1-2.51l6.06-.78,1.72-5.86c16-54.52,33.43-118.22,51.67-189.34Z"/><path class="cls-1" d="M425.8,127.21l-1.73,6.9q-5.77,23.08-11.5,45.53L409.41,192l12.76-.73q10.18-.58,20.4-1.29l6.79-.46,1.65-6.6q5.53-22.17,11.12-44.92l2.94-12-12.34.42q-9.92.33-19.82.58Z"/><path class="cls-1" d="M632,333.42l3.86-18.5c6.4-30.72,13-62.48,19.54-93.16,3.16-14.76,7-30.91,10.39-44.89l3.33-13.8-14,2.38q-9.93,1.7-19.86,3.45l-5.52,1L628,175.2c-.94,2.89-2.46,8.28-4.1,14.59-12.8-11.1-34.34-17.48-64.22-12.14-67.54,11.55-109.35,83.2-109.35,143,0,26.87,7.55,46.51,22.43,58.39,14.48,11.56,35.34,14.67,60.35,9,21.46-5,39.29-13.4,53.79-25.43-12,41.26-28.44,62.2-68.19,70.15-19.12,3.85-33.26,2.94-40.91-2.61-4.4-3.19-6.93-8.15-7.75-15.17l-1.19-10.23-10.07,2.17q-9.9,2.14-19.78,4.25l-7.58,1.61.17,7.74c.37,16.79,6,29.71,16.8,38.41,9.85,8,23.67,11.95,41.24,11.95a160.42,160.42,0,0,0,30.1-3.18C601,452.56,617.54,402.49,632,333.42ZM500.86,347.87c-9.31-7.38-11.26-21.58-11.26-32.19,0-49,31.45-93.35,71.63-100.87,18.59-3.54,32-1.29,39.83,6.68,9,9.12,11.28,26.72,6.52,49.65-6.3,31.78-29.33,69.59-75.08,80.39C523,353.76,509.77,354.93,500.86,347.87Z"/><path class="cls-1" d="M892.58,121.29l-12.93,0c-6.6,0-13.32.09-20,.21l-5.93.12-2.42,5.4c-.92,2-2.3,5.67-3.8,10a57.29,57.29,0,0,0-11.7-7.52c-13.84-6.77-31.9-9.65-52.12-8.34C714.61,125,673.31,186.05,673.31,242.92c0,25.6,7.77,45.46,22.48,57.41s35.41,15.47,60.06,10.33q32.16-6.6,54.5-23.79c-11.12,38.48-26.56,64.15-68.72,72.66-18,3.75-31.7,2.72-39.51-3-5.18-3.78-8.16-9.78-9.08-18.34l-1.13-10.45-10.25,2.34q-9.92,2.25-19.83,4.55l-7.41,1.71.16,7.6c.4,19.25,6.73,33.92,18.81,43.61,10.1,8.11,23.81,12.17,40.92,12.17a146.33,146.33,0,0,0,28.51-3.11c37.31-7.39,64-23.8,81.73-50.19,15.67-23.38,23-52,30.39-84.19h0c7.79-34.32,15.63-66.2,23.32-94.74,3.39-12.51,7.51-25.36,10.31-33.94Zm-180,117h0c0-44.56,30.35-80.52,70.58-83.65q4.44-.33,8.52-.33c16.38,0,28.31,4,34.77,11.6,8.75,10.35,7.12,26.65,4.18,38.61-6.14,26.32-29.44,60.31-74.88,69.47-9.55,1.94-22.86,2.69-32-4.77S712.54,248.28,712.54,238.33Z"/><path class="cls-1" d="M881,310.61l12.29-1.67q9.85-1.35,19.7-2.56l7.07-.88,1-7c17.54-119.22,36.29-210.73,57.32-279.77l3-10L943.17,1.41l-2.43,8.08c-21,70.09-40,164.57-57.93,288.84Z"/><path class="cls-1" d="M1156.54,167.06l9.69-22.18-10-3.11a953.92,953.92,0,0,0-153.85-34.17l-7.32-1-2.69,6.89q-2,5.12-4,10.41L984.23,135,996,136.45c31.08,3.94,61.71,9.36,91.43,16.15-45.54,15.46-87.42,37.75-127.21,67.65l-2.64,2-.81,3.2q-1.62,6.41-3.26,13l-3,12L962.9,250a994.66,994.66,0,0,1,161.28,7.73l5.09.66,3.3-4c2.66-3.18,5.38-6.36,8.1-9.42l11.24-12.69-16.72-2.74a968,968,0,0,0-111-11.71c39-23.28,81-39.66,127.68-49.84Z"/><path class="cls-1" d="M55.75,510c-4.72.14-8.42,2.06-10.49,5.43-.15.23-.3.15-.31-.14l-.55-18.23a.87.87,0,0,0-.93-.88l-2.18.07a.87.87,0,0,0-.87.93L42,547.9a.87.87,0,0,0,.93.87l2.17-.07a.86.86,0,0,0,.87-.93l-.73-24c-.18-5.85,3.75-10,9.83-10.21,5.7-.17,9.8,3.83,10,9.76l.73,23.85a.86.86,0,0,0,.93.87l2.17-.06a.87.87,0,0,0,.87-.93L69,522.45C68.74,514.72,63.41,509.78,55.75,510Z"/><path class="cls-1" d="M99.22,511.36c-7.41-.53-12.91,2.68-14.26,7.85-.11.45.25.77.76.88l2.3.47a.92.92,0,0,0,1.1-.67c1.08-3.46,4.68-5.38,9.77-5,6.89.49,9.31,4.5,8.92,9.82l-.24,3.37a.32.32,0,0,1-.32.28l-9-.65c-9.66-.7-15.75,3.45-16.29,10.86-.56,7.78,5.3,11.07,11.51,11.51,4.79.35,9.48-1,12.4-4,.24-.21.38-.05.37.18l-.23,3.22a.87.87,0,0,0,.83,1l2.17.16a.87.87,0,0,0,1-.84l1.8-24.85C112.33,517.43,108.2,512,99.22,511.36Zm7.58,27.41c-.42,5.84-6.47,8.34-12.31,7.92-5-.37-8.89-3-8.52-8.07.39-5.39,5.47-8.11,12.51-7.6l8.53.62a.32.32,0,0,1,.28.32Z"/><path class="cls-1" d="M143.54,515.61a11.62,11.62,0,0,0-10.66,4c-.17.2-.39.1-.35-.2l.4-3.5a.87.87,0,0,0-.79-1l-2.17-.24a.86.86,0,0,0-1,.79l-5.76,50.4a.87.87,0,0,0,.79,1l2.16.25a.87.87,0,0,0,1-.79l2.06-18.05c0-.22.27-.35.39-.11a11.75,11.75,0,0,0,9.49,6.23c7,.8,12.31-2.68,14.57-8.54a38.07,38.07,0,0,0,1.82-9.31,37.52,37.52,0,0,0,.25-9.49C154.79,520.9,150.47,516.4,143.54,515.61Zm8,20.56c-.65,5.66-1.28,7.25-2.23,9a9.55,9.55,0,0,1-10.25,5.7A8.91,8.91,0,0,1,130.9,543c-.46-1.94-.57-3.62.07-9.21s1.11-7,1.9-8.7a9,9,0,0,1,9.82-6c4.92.57,8.33,3.83,8.89,8.12C152,529.11,152.16,530.72,151.54,536.17Z"/><path class="cls-1" d="M187.73,521.31A11.63,11.63,0,0,0,177,525c-.18.21-.4.1-.36-.2l.5-3.49a.88.88,0,0,0-.77-1l-2.16-.3a.86.86,0,0,0-1,.77L166.13,571a.86.86,0,0,0,.76,1l2.16.3a.86.86,0,0,0,1-.76l2.52-18c0-.22.27-.34.39-.09A11.76,11.76,0,0,0,182.3,560c7,1,12.38-2.36,14.79-8.16a38.62,38.62,0,0,0,2.06-9.26,37.16,37.16,0,0,0,.49-9.47C198.84,526.89,194.64,522.28,187.73,521.31Zm7.47,20.75c-.79,5.65-1.47,7.22-2.46,8.9a9.54,9.54,0,0,1-10.39,5.44,8.92,8.92,0,0,1-8-8.09c-.41-1.95-.47-3.62.31-9.2.76-5.42,1.29-7,2.12-8.64a9.06,9.06,0,0,1,10-5.73c4.91.69,8.23,4,8.68,8.35C195.81,535,196,536.64,195.2,542.06Z"/><path class="cls-1" d="M220.16,526.74,218,526.4a.87.87,0,0,0-1,.76l-5.5,35.59a.87.87,0,0,0,.76,1l2.15.33a.86.86,0,0,0,1-.75l5.5-35.6A.86.86,0,0,0,220.16,526.74Z"/><path class="cls-1" d="M221.19,512.62a3.27,3.27,0,0,0-3.9,2.66,3.32,3.32,0,0,0,2.91,3.79,3.28,3.28,0,0,0,3.92-2.73A3.23,3.23,0,0,0,221.19,512.62Z"/><path class="cls-1" d="M252.54,531.41c-4.66-.77-8.66.39-11.34,3.29-.19.2-.33.1-.28-.2l.58-3.48a.86.86,0,0,0-.74-1l-2.15-.36a.87.87,0,0,0-1,.74l-5.89,35.54a.86.86,0,0,0,.74,1l2.14.36a.87.87,0,0,0,1-.74l3.93-23.69c1-5.78,5.61-9.11,11.61-8.12,5.63.94,8.87,5.66,7.91,11.51l-3.91,23.54a.86.86,0,0,0,.74,1l2.15.36a.87.87,0,0,0,1-.74l4-24.28C264.36,538.54,260.09,532.66,252.54,531.41Z"/><path class="cls-1" d="M295.49,540.05c-7.14-1.44-13.05,1.66-15.82,7.46-1.05,2.16-1.57,4.73-2.37,8.71a35,35,0,0,0-.95,10.06c.69,6,4.66,10.67,11.58,12.06,6.55,1.32,11.92-1,15-5.48a.87.87,0,0,0-.28-1.29l-1.22-.78a.84.84,0,0,0-1.26.21c-2.35,3.28-6.35,4.92-11.23,4-5.66-1.14-8.91-5.16-9-10a34.91,34.91,0,0,1,.91-6.4.28.28,0,0,1,.35-.24l23.92,4.82a.85.85,0,0,0,1.07-.78c.85-4.2,1.12-5.9,1.07-8C307.37,547.19,303.51,541.66,295.49,540.05Zm7.18,19.06a.27.27,0,0,1-.35.23l-20.53-4.13a.27.27,0,0,1-.23-.36,28.63,28.63,0,0,1,1.68-5.71c1.86-4.29,6.11-6.73,11.55-5.63s8.54,5.09,8.64,9.93A33.74,33.74,0,0,1,302.67,559.11Z"/><path class="cls-1" d="M335.4,547.06c-7.73-1.06-13.62,2.07-14.45,8.16-.93,6.77,5.19,9.65,11.24,12.45,5,2.28,9.65,4.21,9,8.67-.54,3.94-4.75,6.47-10.4,5.69s-9.23-4.52-8.75-8l.11-.82c.06-.44-.27-.79-.79-.86l-2.08-.29a.86.86,0,0,0-1,.77l-.12.82c-.73,5.35,4.09,10.48,12.27,11.61s13.89-2.41,14.74-8.58c1-7.07-5.68-9.95-11.74-12.68-5.07-2.28-9.26-4.3-8.69-8.46.54-3.94,4.61-6,10.11-5.2,5.94.81,9.18,4.29,8.68,7.93l-.06.45c0,.3.3.57.82.64l2,.28a.86.86,0,0,0,1-.77v-.08C348.13,553.12,343.43,548.16,335.4,547.06Z"/><path class="cls-1" d="M372.52,551.17c-7.78-.66-13.49,2.77-14,8.9-.58,6.81,5.68,9.37,11.87,11.86,5.1,2,9.86,3.7,9.47,8.19-.33,4-4.41,6.7-10.09,6.22-5.84-.5-9.45-4-9.15-7.56l.07-.82c0-.45-.31-.78-.84-.83l-2.09-.17a.86.86,0,0,0-1,.82l-.07.82c-.46,5.38,4.62,10.26,12.85,11,8.07.69,13.75-3.12,14.28-9.33.6-7.11-6.19-9.64-12.39-12.05-5.17-2-9.47-3.82-9.11-8,.34-4,4.29-6.19,9.83-5.72,6,.51,9.39,3.81,9.08,7.48l0,.45c0,.3.33.55.85.6l2,.17a.88.88,0,0,0,1-.82v-.08C385.55,556.57,380.6,551.86,372.52,551.17Z"/><path class="cls-1" d="M432.25,554.09l-8.63-.1a.32.32,0,0,1-.3-.3l.1-8.41a.86.86,0,0,0-.89-.91l-2.1,0a.87.87,0,0,0-.91.89l-.1,8.41a.33.33,0,0,1-.3.3l-4.36-.06a.88.88,0,0,0-.91.89l0,1.58a.87.87,0,0,0,.89.91l4.35,0a.32.32,0,0,1,.3.31l-.29,24.69c0,7.65,4.24,9.5,10.54,9.58.68,0,1.35-.06,2.1,0a.84.84,0,0,0,.92-.89l0-1.73a.88.88,0,0,0-.89-.91l-1.58,0c-4.88-.06-7.26-1.74-7.2-7l.28-23.64a.32.32,0,0,1,.31-.29l8.63.1a.87.87,0,0,0,.91-.89l0-1.58A.88.88,0,0,0,432.25,554.09Z"/><path class="cls-1" d="M462,552.88c-4.72.2-8.39,2.15-10.43,5.55-.14.23-.29.16-.3-.14l-.78-18.22a.86.86,0,0,0-.94-.86l-2.17.09a.87.87,0,0,0-.86.94l2.15,50.68a.87.87,0,0,0,.94.87l2.17-.1a.86.86,0,0,0,.86-.94l-1-24c-.24-5.85,3.63-10.07,9.71-10.33,5.69-.24,9.84,3.72,10.09,9.64l1,23.85a.86.86,0,0,0,.93.86l2.18-.1a.86.86,0,0,0,.86-.93l-1-24.6C475,557.43,469.63,552.55,462,552.88Z"/><path class="cls-1" d="M502.36,549.71c-7.39.81-12.22,5-12.61,10.29,0,.46.38.71.91.73l2.34,0a.94.94,0,0,0,1-.86c.43-3.6,3.62-6.14,8.7-6.7,6.86-.75,10,2.75,10.55,8l.37,3.36a.33.33,0,0,1-.27.33l-9,1c-9.63,1.06-14.87,6.24-14.06,13.63.86,7.76,7.21,9.93,13.4,9.25,4.78-.53,9.15-2.67,11.48-6.17.2-.25.36-.12.39.11l.35,3.2a.87.87,0,0,0,1,.8l2.16-.24a.86.86,0,0,0,.79-1l-2.72-24.77C516.34,553.3,511.31,548.72,502.36,549.71Zm1.72,35.59c-5,.55-9.28-1.32-9.84-6.39-.59-5.37,3.92-9,10.94-9.73l8.5-.94a.33.33,0,0,1,.33.27l.75,6.79C515.4,581.11,509.9,584.66,504.08,585.3Z"/><path class="cls-1" d="M551.53,578.58a.87.87,0,0,0-1-.73l-1.55.27c-4.81.82-7.46-.4-8.35-5.57l-4-23.3a.32.32,0,0,1,.24-.35l8.51-1.46a.86.86,0,0,0,.73-1l-.27-1.55a.86.86,0,0,0-1-.74l-8.5,1.46a.32.32,0,0,1-.35-.24L534.49,537a.87.87,0,0,0-1-.73l-2.07.36a.86.86,0,0,0-.74,1l1.43,8.28a.34.34,0,0,1-.25.35l-4.29.73a.87.87,0,0,0-.73,1l.26,1.56a.87.87,0,0,0,1,.73l4.29-.73a.31.31,0,0,1,.35.24l4.19,24.33c1.37,7.53,5.89,8.58,12.1,7.52.67-.12,1.32-.31,2.06-.43a.83.83,0,0,0,.73-1Z"/><path class="cls-1" d="M592.49,550.16c-5.56-.09-10.21-.28-11.33-4.33-1.06-3.84,1.87-7.3,7.22-8.78,5.79-1.61,10.13.3,11.11,3.84l.12.44c.09.29.51.4,1,.26l2-.54a.87.87,0,0,0,.62-1.11l0-.07c-1.52-5.49-7.8-8.19-15.61-6-7.52,2.08-11.68,7.29-10,13.22,1.83,6.58,8.59,6.8,15.26,7,5.48.11,10.52,0,11.72,4.38,1.07,3.83-1.8,7.82-7.29,9.34s-10.27-.5-11.21-3.9l-.22-.79a.8.8,0,0,0-1.07-.49l-2,.56a.87.87,0,0,0-.63,1.11l.22.8c1.45,5.21,7.91,8,15.86,5.8s11.8-7.71,10.14-13.72C606.38,550.28,599.13,550.26,592.49,550.16Z"/><path class="cls-1" d="M643.76,528.19c-2.71-7.24-9.35-10.21-16.52-7.53-4.43,1.66-7.31,4.66-8.2,8.52-.06.26-.22.24-.33,0l-6.39-17.08a.87.87,0,0,0-1.16-.53l-2,.76a.88.88,0,0,0-.53,1.16L626.37,561a.87.87,0,0,0,1.16.53l2-.77a.87.87,0,0,0,.53-1.16l-8.42-22.49c-2-5.49.33-10.7,6-12.83,5.34-2,10.52.47,12.6,6l8.36,22.36a.87.87,0,0,0,1.16.53l2-.76a.86.86,0,0,0,.53-1.16Z"/><path class="cls-1" d="M687.31,514.93a36.72,36.72,0,0,0-4.85-8c-4.17-4.73-10.74-6-17.13-2.86s-9.39,9.14-8.25,15.36a39.26,39.26,0,0,0,3.37,8.71,33.7,33.7,0,0,0,5,8c4.27,4.75,10.7,6.1,17.16,2.92s9.39-9.14,8.15-15.39A36.63,36.63,0,0,0,687.31,514.93Zm-6.3,21c-5,2.46-9.8,1.32-13-2.56a42.31,42.31,0,0,1-3.92-6.93A43.47,43.47,0,0,1,661,519.1c-1.11-4.8.89-9.39,5.81-11.81s9.84-1.25,13,2.56a41.38,41.38,0,0,1,3.92,6.94,44.17,44.17,0,0,1,3.11,7.33A10.19,10.19,0,0,1,681,535.93Z"/><path class="cls-1" d="M727.65,469.34a.7.7,0,0,0-1.15-.42L724.62,470a1,1,0,0,0-.49,1.2l9.3,31a.23.23,0,0,1-.38.24l-24-21.71a1.06,1.06,0,0,0-1.29-.08L706,481.73a1.08,1.08,0,0,0-.49,1.2l9.34,31c.06.23-.13.35-.32.2l-23.87-21.86a1,1,0,0,0-1.29-.07l-1.84,1.16a.75.75,0,0,0-.08,1.28l28,24.92a1,1,0,0,0,1.29.08l2-1.24a1.05,1.05,0,0,0,.48-1.2l-8.68-29.83a.23.23,0,0,1,.38-.24l23.29,20.63a1.06,1.06,0,0,0,1.29.08l2-1.24a1,1,0,0,0,.42-1.16Z"/><path class="cls-1" d="M754.8,470.67c-5.37,1.42-9.89,2.51-12.08-1.07-2.07-3.4-.19-7.53,4.55-10.42,5.12-3.13,9.83-2.48,11.74.66l.24.38c.15.26.59.25,1,0l1.73-1.05a.87.87,0,0,0,.3-1.24l0-.07c-3-4.87-9.75-5.74-16.67-1.52-6.66,4.06-9.24,10.21-6,15.46,3.56,5.83,10.12,4.2,16.59,2.54,5.3-1.39,10.13-2.84,12.47,1,2.08,3.39.41,8-4.46,11s-10,2.33-11.84-.68l-.43-.71a.81.81,0,0,0-1.16-.17l-1.8,1.1a.86.86,0,0,0-.3,1.23l.43.71c2.82,4.61,9.8,5.54,16.85,1.24s9.24-10.65,6-16C768.2,467,761.23,469,754.8,470.67Z"/><path class="cls-1" d="M820.22,435.92a36.64,36.64,0,0,0-5.14-7.8c-4.34-4.57-11-5.61-17.23-2.23s-9.05,9.48-7.68,15.65a38.83,38.83,0,0,0,3.69,8.59A33.49,33.49,0,0,0,799.1,458c4.44,4.6,10.93,5.71,17.27,2.29s9-9.48,7.58-15.68A36.79,36.79,0,0,0,820.22,435.92Zm-5.53,21.23c-4.89,2.63-9.75,1.67-13.06-2.09a42.46,42.46,0,0,1-4.17-6.79,43.45,43.45,0,0,1-3.38-7.22c-1.28-4.76.55-9.42,5.38-12s9.79-1.61,13.06,2.09a41.4,41.4,0,0,1,4.17,6.79,44.67,44.67,0,0,1,3.38,7.22C821.36,449.89,819.45,454.58,814.69,457.15Z"/><path class="cls-1" d="M856,411.28c-3.32-7-10.18-9.37-17.09-6.08-4.27,2-6.89,5.27-7.44,9.18,0,.27-.2.27-.33,0l-1.52-3.18a.87.87,0,0,0-1.2-.43l-2,.94a.87.87,0,0,0-.43,1.2l15.46,32.52a.87.87,0,0,0,1.2.43l2-.94a.86.86,0,0,0,.43-1.19L834.76,422c-2.51-5.28-.6-10.68,4.89-13.29,5.15-2.45,10.52-.43,13.06,4.92L863,435.21a.88.88,0,0,0,1.21.43l2-.94a.87.87,0,0,0,.43-1.2Z"/><path class="cls-1" d="M910.59,413.62a.86.86,0,0,0-1.16-.52l-1.47.56c-4.56,1.74-7.39,1-9.26-3.86l-8.42-22.1a.32.32,0,0,1,.18-.38l8.06-3.08a.85.85,0,0,0,.52-1.16l-.56-1.47a.86.86,0,0,0-1.16-.52l-8.06,3.07a.34.34,0,0,1-.39-.17l-3-7.86a.87.87,0,0,0-1.17-.52l-2,.74a.87.87,0,0,0-.52,1.17l3,7.85a.33.33,0,0,1-.17.39L881,387.31a.86.86,0,0,0-.52,1.16L881,390a.87.87,0,0,0,1.16.52l4.07-1.55a.32.32,0,0,1,.39.17l8.78,23.08c2.8,7.13,7.44,7.29,13.33,5,.63-.24,1.23-.55,1.94-.81a.83.83,0,0,0,.52-1.17Z"/><path class="cls-1" d="M943.16,379c-2.28-7.38-8.74-10.73-16.06-8.47-4.51,1.4-7.57,4.23-8.67,8-.07.26-.24.23-.33-.05l-5.39-17.43a.87.87,0,0,0-1.13-.59l-2.08.64a.87.87,0,0,0-.59,1.13l15,48.47a.88.88,0,0,0,1.13.6l2.08-.65a.86.86,0,0,0,.59-1.12l-7.1-22.95c-1.73-5.59.94-10.66,6.75-12.46,5.45-1.69,10.47,1.08,12.22,6.74l7.06,22.81a.87.87,0,0,0,1.13.59l2.08-.64a.87.87,0,0,0,.59-1.13Z"/><path class="cls-1" d="M988.82,385.24l-1.44-.23a.85.85,0,0,0-1.07.7c-.82,4-3.82,7.07-8.64,8.21-5.64,1.25-10.24-1.12-12.28-5.51a34.5,34.5,0,0,1-1.76-6.22.27.27,0,0,1,.23-.35l23.81-5.27a.85.85,0,0,0,.67-1.14c-.92-4.18-1.37-5.85-2.25-7.73-2.78-6.68-8.54-10.17-16.53-8.41-7.11,1.57-11.26,6.79-11.45,13.21-.09,2.4.48,5,1.36,8.92a34.61,34.61,0,0,0,3.19,9.59c3.08,5.24,8.58,7.87,15.46,6.35,6.52-1.44,10.48-5.78,11.47-11.07A.86.86,0,0,0,988.82,385.24Zm-26-6.78a28.12,28.12,0,0,1-.77-5.9c0-4.68,2.86-8.63,8.28-9.82s9.87,1.19,11.92,5.58a35.23,35.23,0,0,1,1.59,5.49.27.27,0,0,1-.23.36l-20.44,4.51A.26.26,0,0,1,962.81,378.46Z"/><path class="cls-1" d="M1037.56,383.53l-1.57.19c-4.84.57-7.42-.79-8-6l-2.76-23.48a.32.32,0,0,1,.26-.33l8.57-1a.86.86,0,0,0,.79-1l-.18-1.56a.87.87,0,0,0-1-.79l-8.57,1a.34.34,0,0,1-.34-.27l-1-8.34a.86.86,0,0,0-1-.79l-2.09.24a.86.86,0,0,0-.78,1l1,8.35a.32.32,0,0,1-.27.33l-4.32.51a.87.87,0,0,0-.79,1l.19,1.57a.87.87,0,0,0,1,.79l4.32-.51a.31.31,0,0,1,.33.26l2.89,24.52c1,7.6,5.43,8.89,11.69,8.15.67-.08,1.33-.24,2.08-.32a.83.83,0,0,0,.79-1l-.2-1.72A.87.87,0,0,0,1037.56,383.53Z"/><path class="cls-1" d="M1062.33,346.53c-7.41.49-12.41,4.44-13,9.75,0,.45.35.73.88.77l2.34.14a.92.92,0,0,0,1-.82c.58-3.57,3.88-6,9-6.32,6.89-.46,9.84,3.18,10.19,8.49l.23,3.37a.32.32,0,0,1-.28.32l-9,.61c-9.67.64-15.13,5.6-14.63,13,.53,7.79,6.78,10.23,13,9.81,4.79-.32,9.25-2.27,11.73-5.67.21-.24.37-.1.38.12l.22,3.22a.86.86,0,0,0,1,.84l2.17-.15a.87.87,0,0,0,.84-1l-1.67-24.86C1076.16,350.71,1071.32,345.92,1062.33,346.53Zm.21,35.64c-5,.33-9.21-1.72-9.55-6.81-.37-5.39,4.3-8.79,11.33-9.26l8.54-.57a.32.32,0,0,1,.32.28l.46,6.81C1074,378.46,1068.39,381.78,1062.54,382.17Z"/><rect class="cls-1" x="1092.8" y="345.49" width="3.98" height="37.82" rx="0.9" transform="translate(-13.17 42.27) rotate(-2.2)"/><path class="cls-1" d="M1097.05,334.5a3.22,3.22,0,0,0-3.57-3.09,3.27,3.27,0,0,0-3.33,3.36,3.32,3.32,0,0,0,3.58,3.16A3.27,3.27,0,0,0,1097.05,334.5Z"/><path class="cls-1" d="M1115.53,330.08l-2.17.06a.88.88,0,0,0-.88.93l1.46,50.71a.87.87,0,0,0,.93.87l2.18-.06a.87.87,0,0,0,.87-.93l-1.46-50.7A.87.87,0,0,0,1115.53,330.08Z"/></g></g></svg>