<svg width="18" height="21" viewBox="0 0 18 21" fill="none" xmlns="http://www.w3.org/2000/svg">
<path d="M9.00002 21.0001H8.95252C4.38419 21.0001 0.666687 17.0748 0.666687 12.2501C0.666687 10.5622 1.22169 8.68884 2.22835 6.97296C2.62085 6.30359 3.37252 5.98771 4.09585 6.18896C4.82002 6.38934 5.32419 7.05259 5.35002 7.83834C5.43002 10.2358 5.97752 13.1006 8.13169 13.126C9.03252 13.1338 9.74585 12.4723 9.82085 11.6148C9.89919 10.7171 9.59002 10.0136 9.19919 9.12371C8.73919 8.07371 8.16585 6.76821 8.16585 4.83534C8.16585 3.34171 8.45335 1.84984 8.73835 1.03346C8.95085 0.427086 9.45169 0.0289609 10.0467 -0.00691413C10.6625 -0.0419141 11.225 0.314211 11.5075 0.904836C12.1759 2.30046 13.1225 3.59021 14.0375 4.83796C15.6809 7.07971 17.38 9.39759 17.3342 12.2641C17.3342 17.0451 13.5984 20.9703 9.00585 20.9992H9.00085L9.00002 21.0001Z" fill="white"/>
</svg>
